<?xml version="1.0" encoding="utf-8"?>
<!-- Generator: Adobe Illustrator 25.3.0, SVG Export Plug-In . SVG Version: 6.00 Build 0)  -->
<svg version="1.1" id="Layer_1" xmlns="http://www.w3.org/2000/svg" xmlns:xlink="http://www.w3.org/1999/xlink" x="0px" y="0px"
	 viewBox="0 0 1080 1080" style="enable-background:new 0 0 1080 1080;" xml:space="preserve">
<style type="text/css">
	.st0{fill:#252323;}
	.st1{fill:#2D2D2D;}
	.st2{fill:#70798C;}
</style>
<g>
	<g>
		<path class="st0" d="M337.5,589.2v-14.9l50.8-63.4h-49.1v-18.7h78.7v15l-50.7,63.2h51.5v18.9H337.5z"/>
		<path class="st0" d="M479.3,589.2h-21.7v-38.3l-33.6-58.7h23.5l21,36.1l21-36.1h23.5l-33.6,58.7V589.2z"/>
		<path class="st0" d="M590.2,500.8c6.8,5.8,10.2,14.7,10.2,26.7c0,12-3.5,20.8-10.5,26.3c-7,5.6-17.7,8.3-32,8.3H545v27.1h-21.7
			v-97h34.3C572.5,492.1,583.4,495,590.2,500.8z M574.3,539c2.6-2.9,3.9-7.2,3.9-12.8c0-5.6-1.7-9.6-5.1-11.9
			c-3.4-2.4-8.6-3.5-15.8-3.5H545v32.6h14.6C566.8,543.3,571.7,541.9,574.3,539z"/>
		<path class="st0" d="M687.3,492.1v19.3H639v20h43.4v18.5H639V570h49.8v19.2h-71.5v-97H687.3z"/>
	</g>
	<g>
		<path class="st1" d="M782.7,622.3H297.3V457.7h485.4V622.3z M310.2,609.4h459.6V470.6H310.2V609.4z"/>
	</g>
	<g>
		<rect x="721.4" y="432.6" class="st2" width="20" height="217.2"/>
		
			<rect x="723.2" y="407.1" transform="matrix(-1.836970e-16 1 -1 -1.836970e-16 1166.842 -295.8986)" class="st2" width="16.3" height="56.8"/>
		
			<rect x="723.2" y="616.1" transform="matrix(-1.836970e-16 1 -1 -1.836970e-16 1375.8185 -86.9221)" class="st2" width="16.4" height="56.8"/>
	</g>
</g>
</svg>
