<?xml version="1.0" standalone="no"?>
<!DOCTYPE svg PUBLIC "-//W3C//DTD SVG 20010904//EN"
 "http://www.w3.org/TR/2001/REC-SVG-20010904/DTD/svg10.dtd">
<svg version="1.0" xmlns="http://www.w3.org/2000/svg"
 width="313.000000pt" height="313.000000pt" viewBox="0 0 313.000000 313.000000"
 preserveAspectRatio="xMidYMid meet">
<metadata>
Created by potrace 1.14, written by Peter Selinger 2001-2017
</metadata>
<g transform="translate(0.000000,313.000000) scale(0.100000,-0.100000)"
fill="#000000" stroke="none">
<path d="M380 3094 c-149 -39 -274 -137 -333 -261 l-32 -68 -3 -810 c-3 -870
-4 -851 47 -912 29 -34 89 -63 139 -68 94 -8 85 -15 810 710 476 477 680 675
695 675 17 0 6 -16 -58 -82 -134 -138 -152 -157 -390 -402 -126 -131 -259
-268 -294 -305 -79 -82 -505 -523 -586 -607 -268 -275 -304 -316 -331 -370
-67 -137 -32 -310 86 -433 57 -60 114 -96 204 -129 l71 -26 1150 -2 c1070 -1
1154 0 1212 17 148 42 259 131 321 259 l37 75 0 820 c0 783 -1 822 -19 854
-51 95 -179 136 -273 88 -16 -9 -333 -320 -704 -691 -509 -511 -680 -676 -698
-676 -19 0 -3 20 92 118 63 64 144 147 179 183 59 63 435 452 578 599 36 37
171 177 300 310 129 134 290 300 358 369 142 147 181 210 187 309 12 212 -136
395 -370 456 -53 14 -199 15 -1190 15 -956 0 -1138 -2 -1185 -15z m1468 -59
c107 -45 138 -139 91 -277 -34 -102 -180 -328 -212 -328 -63 0 -80 -16 -762
-700 -506 -507 -686 -681 -709 -687 -69 -17 -132 7 -167 63 -18 30 -19 56 -16
835 l2 804 27 57 c51 110 160 198 289 232 44 12 177 15 737 15 598 1 687 -1
720 -14z m1138 -976 c84 -40 79 11 78 -879 0 -575 -4 -796 -12 -827 -18 -60
-84 -154 -136 -191 -61 -44 -140 -79 -205 -90 -30 -6 -359 -10 -765 -10 -787
0 -739 -4 -774 66 -48 96 -3 239 137 436 65 91 91 118 117 122 10 2 29 6 43 9
15 4 286 268 698 681 401 403 685 680 705 689 45 19 65 18 114 -6z"/>
</g>
</svg>
